<?xml version="1.0" encoding="iso-8859-1"?>
<!-- Generator: Adobe Illustrator 19.0.0, SVG Export Plug-In . SVG Version: 6.00 Build 0)  -->
<svg version="1.1" id="Layer_1" xmlns="http://www.w3.org/2000/svg" xmlns:xlink="http://www.w3.org/1999/xlink" x="0px" y="0px"
	 viewBox="0 0 512 512" style="enable-background:new 0 0 512 512;" xml:space="preserve">
<g>
	<g>
		<path d="M391.505,70.537v-59.87C391.505,4.775,386.729,0,380.838,0h-50.61c-5.89,0-10.667,4.775-10.667,10.667V52.97h-21.967
			v-6.239c0-17.645-14.355-32-32-32h-19.189c-17.645,0-32,14.355-32,32v6.239h-21.967V10.667C192.438,4.775,187.662,0,181.772,0
			h-50.609c-5.89,0-10.667,4.775-10.667,10.667v59.869c-22.484,16.516-37.115,43.126-37.115,73.101V480c0,17.645,14.355,32,32,32
			h281.237c17.645,0,32-14.355,32-32V143.636C428.619,113.663,413.989,87.052,391.505,70.537z M340.895,21.333h29.277v37.572
			c-9.148-3.49-18.997-5.532-29.277-5.861V21.333z M235.739,46.731L235.739,46.731c0-5.882,4.785-10.667,10.667-10.667h19.189
			c5.882,0,10.667,4.785,10.667,10.667v6.239h-40.523V46.731z M141.829,21.333h29.276v31.711
			c-10.279,0.331-20.129,2.371-29.276,5.861V21.333z M407.285,480c0,5.882-4.785,10.667-10.667,10.667H115.381
			c-5.882,0-10.667-4.785-10.667-10.667V143.636c0-38.23,31.103-69.333,69.333-69.333h51.024h61.856h51.024
			c38.23,0,69.333,31.103,69.333,69.333V480z"/>
	</g>
</g>
<g>
	<g>
		<path d="M300.657,148.317l-37.115-37.114c-2.001-2-4.714-3.124-7.542-3.124c-2.829,0-5.541,1.124-7.542,3.124l-37.114,37.115
			c-4.165,4.165-4.165,10.919,0,15.085l37.114,37.113c2.001,2.001,4.714,3.124,7.542,3.124c2.829,0,5.541-1.124,7.542-3.124
			l37.115-37.114c2-2,3.124-4.714,3.124-7.542S302.657,150.317,300.657,148.317z M256,177.888l-22.029-22.029L256,133.829
			l22.029,22.029L256,177.888z"/>
	</g>
</g>
<g>
	<g>
		<path d="M359.215,283.476h-206.43c-14.704,0-26.667,11.963-26.667,26.667v132.473c0,14.704,11.963,26.667,26.667,26.667h206.429
			c14.704,0,26.667-11.963,26.667-26.667V310.143C385.882,295.439,373.919,283.476,359.215,283.476z M364.547,442.615
			c0.001,2.94-2.393,5.333-5.332,5.333h-206.43c-2.941,0-5.333-2.393-5.333-5.333V347.86h177.383v18.033
			c0,5.891,4.777,10.667,10.667,10.667c5.891,0,10.667-4.775,10.667-10.667V347.86h18.379V442.615z M364.547,326.526H147.452
			v-16.383c0-2.941,2.393-5.333,5.333-5.333h206.429c2.941,0,5.333,2.393,5.333,5.333V326.526z"/>
	</g>
</g>
<g>
</g>
<g>
</g>
<g>
</g>
<g>
</g>
<g>
</g>
<g>
</g>
<g>
</g>
<g>
</g>
<g>
</g>
<g>
</g>
<g>
</g>
<g>
</g>
<g>
</g>
<g>
</g>
<g>
</g>
</svg>
